<?xml version="1.0" encoding="UTF-8" standalone="no"?>
<svg
   width="78.9095mm"
   height="26.5007mm"
   viewBox="0 0 932 313"
   version="1.1"
   id="svg3"
   sodipodi:docname="logo_losarrieros.svg"
   inkscape:version="1.1 (c68e22c387, 2021-05-23)"
   xmlns:inkscape="http://www.inkscape.org/namespaces/inkscape"
   xmlns:sodipodi="http://sodipodi.sourceforge.net/DTD/sodipodi-0.dtd"
   xmlns="http://www.w3.org/2000/svg"
   xmlns:svg="http://www.w3.org/2000/svg">
  <defs
     id="defs7" />
  <sodipodi:namedview
     id="namedview5"
     pagecolor="#ffffff"
     bordercolor="#666666"
     borderopacity="1.0"
     inkscape:pageshadow="2"
     inkscape:pageopacity="0.0"
     inkscape:pagecheckerboard="0"
     inkscape:document-units="mm"
     showgrid="false"
     inkscape:zoom="1.7737355"
     inkscape:cx="199.01501"
     inkscape:cy="43.693098"
     inkscape:window-width="1366"
     inkscape:window-height="705"
     inkscape:window-x="-8"
     inkscape:window-y="-8"
     inkscape:window-maximized="1"
     inkscape:current-layer="svg3" />
  <path
     id="Selection"
     fill="none"
     stroke="black"
     stroke-width="1"
     d="M 24.93,144.00            C 31.07,143.52 30.85,141.62 31.00,136.00              31.00,136.00 37.00,135.00 37.00,135.00              38.18,142.02 42.82,142.02 44.00,135.00              44.00,135.00 50.16,136.00 50.16,136.00              50.02,137.34 49.97,139.70 50.16,140.94              51.27,144.41 54.22,145.19 55.98,142.67              57.13,141.02 56.97,137.95 57.00,136.00              57.00,136.00 63.00,135.00 63.00,135.00              64.18,142.02 68.82,142.02 70.00,135.00              70.00,135.00 76.16,136.00 76.16,136.00              76.02,137.34 75.97,139.70 76.16,140.94              77.27,144.41 80.22,145.19 81.98,142.67              83.13,141.02 82.97,137.95 83.00,136.00              83.00,136.00 89.00,135.00 89.00,135.00              89.65,142.78 93.65,142.00 96.00,135.00              96.00,135.00 102.00,136.00 102.00,136.00              102.01,137.65 101.86,141.16 102.57,142.57              103.07,143.54 103.86,144.22 105.00,144.26              108.75,144.38 108.87,138.52 109.00,136.00              109.00,136.00 114.00,135.00 114.00,135.00              115.52,141.92 120.34,142.85 121.00,135.00              121.00,135.00 127.00,136.00 127.00,136.00              127.13,138.52 127.25,144.38 131.00,144.26              132.14,144.22 132.93,143.54 133.43,142.57              134.14,141.16 133.99,137.65 134.00,136.00              134.00,136.00 140.00,135.00 140.00,135.00              141.52,141.92 146.34,142.85 147.00,135.00              147.00,135.00 153.16,136.00 153.16,136.00              153.02,137.34 152.97,139.70 153.16,140.94              154.27,144.41 157.22,145.19 158.98,142.67              160.13,141.02 159.97,137.95 160.00,136.00              160.00,136.00 166.00,135.00 166.00,135.00              167.18,142.02 171.82,142.02 173.00,135.00              173.00,135.00 179.00,136.00 179.00,136.00              179.03,137.95 178.87,141.02 180.02,142.67              181.78,145.19 184.73,144.41 185.84,140.94              186.03,139.70 185.98,137.34 185.84,136.00              185.84,136.00 192.00,135.00 192.00,135.00              192.66,142.85 197.48,141.92 199.00,135.00              199.00,135.00 205.16,136.00 205.16,136.00              205.02,137.35 204.97,139.69 205.16,140.94              206.19,144.14 208.94,145.37 210.83,142.67              212.04,140.92 211.95,138.04 212.00,136.00              212.00,136.00 218.00,135.00 218.00,135.00              218.10,136.22 218.03,137.55 218.60,138.68              219.66,140.82 223.38,142.41 224.00,135.00              224.00,135.00 231.00,136.00 231.00,136.00              231.01,137.71 230.87,141.21 231.60,142.68              232.80,145.12 235.74,145.06 236.84,141.85              237.06,140.58 236.99,137.43 236.84,136.00              236.84,136.00 243.00,135.00 243.00,135.00              244.52,141.92 249.34,142.85 250.00,135.00              250.00,135.00 256.00,136.00 256.00,136.00              256.05,138.04 255.96,140.92 257.17,142.67              259.06,145.37 261.81,144.14 262.84,140.94              263.03,139.69 262.98,137.35 262.84,136.00              262.84,136.00 269.00,135.00 269.00,135.00              270.18,142.02 274.82,142.02 276.00,135.00              276.00,135.00 282.16,136.00 282.16,136.00              282.02,137.34 281.97,139.70 282.16,140.94              283.27,144.41 286.22,145.19 287.98,142.67              289.13,141.02 288.97,137.95 289.00,136.00              289.00,136.00 295.00,135.00 295.00,135.00              296.18,142.02 300.82,142.02 302.00,135.00              302.00,135.00 308.16,136.00 308.16,136.00              308.02,137.34 307.97,139.70 308.16,140.94              309.27,144.41 312.22,145.19 313.98,142.67              315.13,141.02 314.97,137.95 315.00,136.00              315.00,136.00 321.00,135.00 321.00,135.00              321.65,142.78 325.65,142.00 328.00,135.00              328.00,135.00 334.00,136.00 334.00,136.00              334.01,137.65 333.86,141.16 334.57,142.57              335.07,143.54 335.86,144.22 337.00,144.26              340.75,144.38 340.87,138.52 341.00,136.00              341.00,136.00 346.00,135.00 346.00,135.00              347.52,141.92 352.34,142.85 353.00,135.00              353.00,135.00 359.00,136.00 359.00,136.00              359.13,138.52 359.25,144.38 363.00,144.26              364.14,144.22 364.93,143.54 365.43,142.57              366.14,141.16 365.99,137.65 366.00,136.15              367.55,135.92 369.24,135.63 370.70,136.15              372.13,136.95 376.76,144.26 378.84,137.85              378.84,137.85 378.84,135.00 378.84,135.00              378.84,135.00 385.00,136.00 385.00,136.00              385.03,137.95 384.87,141.02 386.02,142.67              387.78,145.19 390.73,144.41 391.84,140.94              392.03,139.70 391.98,137.34 391.84,136.00              391.84,136.00 398.00,135.00 398.00,135.00              399.18,142.02 403.82,142.02 405.00,135.00              405.00,135.00 411.16,136.00 411.16,136.00              411.02,137.34 410.97,139.70 411.16,140.94              412.27,144.41 415.22,145.19 416.98,142.67              418.13,141.02 417.97,137.95 418.00,136.00              418.00,136.00 424.00,135.00 424.00,135.00              424.66,142.85 429.48,141.92 431.00,135.00              431.00,135.00 437.16,136.00 437.16,136.00              437.02,137.35 436.97,139.69 437.16,140.94              438.19,144.14 440.94,145.37 442.83,142.67              444.04,140.92 443.95,138.04 444.00,136.00              444.00,136.00 450.00,135.00 450.00,135.00              450.66,142.85 455.48,141.92 457.00,135.00              457.00,135.00 463.00,136.00 463.00,136.00              463.01,137.71 462.87,141.21 463.60,142.68              464.80,145.12 467.74,145.06 468.84,141.85              469.06,140.58 468.99,137.43 468.84,136.00              468.84,136.00 475.00,135.00 475.00,135.00              476.52,141.92 481.34,142.85 482.00,135.00              482.00,135.00 488.00,136.00 488.00,136.00              488.05,138.04 487.96,140.92 489.17,142.67              491.06,145.37 493.81,144.14 494.84,140.94              495.03,139.69 494.98,137.35 494.84,136.00              494.84,136.00 501.00,135.00 501.00,135.00              502.18,142.02 506.82,142.02 508.00,135.00              508.00,135.00 514.16,136.00 514.16,136.00              514.02,137.34 513.97,139.70 514.16,140.94              515.27,144.41 518.22,145.19 519.98,142.67              521.13,141.02 520.97,137.95 521.00,136.00              521.00,136.00 527.00,135.00 527.00,135.00              528.18,142.02 532.82,142.02 534.00,135.00              534.00,135.00 540.16,136.00 540.16,136.00              540.02,137.34 539.97,139.70 540.16,140.94              541.27,144.41 544.22,145.19 545.98,142.67              547.13,141.02 546.97,137.95 547.00,136.00              547.00,136.00 553.00,135.00 553.00,135.00              553.65,142.78 557.65,142.00 560.00,135.00              560.00,135.00 566.00,136.00 566.00,136.00              566.01,137.65 565.86,141.16 566.57,142.57              567.07,143.54 567.86,144.22 569.00,144.26              572.75,144.38 572.87,138.52 573.00,136.00              573.00,136.00 579.00,135.00 579.00,135.00              579.10,136.22 579.03,137.55 579.60,138.68              580.66,140.82 584.38,142.41 585.00,135.00              585.00,135.00 591.00,136.00 591.00,136.00              591.13,138.52 591.25,144.38 595.00,144.26              596.14,144.22 596.93,143.54 597.43,142.57              598.14,141.16 597.99,137.65 598.00,136.00              598.00,136.00 604.00,135.00 604.00,135.00              605.52,141.92 610.34,142.85 611.00,135.00              611.00,135.00 617.16,136.00 617.16,136.00              617.02,137.34 616.97,139.70 617.16,140.94              618.27,144.41 621.22,145.19 622.98,142.67              624.13,141.02 623.97,137.95 624.00,136.00              624.00,136.00 630.00,135.00 630.00,135.00              631.18,142.02 635.82,142.02 637.00,135.00              637.00,135.00 643.00,136.00 643.00,136.00              643.03,137.95 642.87,141.02 644.02,142.67              645.78,145.19 648.73,144.41 649.84,140.94              650.03,139.70 649.98,137.34 649.84,136.00              649.84,136.00 656.00,135.00 656.00,135.00              657.18,142.02 661.82,142.02 663.00,135.00              663.00,135.00 669.16,136.00 669.16,136.00              669.02,137.35 668.97,139.69 669.16,140.94              670.19,144.14 672.94,145.37 674.83,142.67              676.04,140.92 675.95,138.04 676.00,136.00              676.00,136.00 682.00,135.00 682.00,135.00              682.66,142.85 687.48,141.92 689.00,135.00              689.00,135.00 695.00,136.00 695.00,136.00              695.01,137.71 694.87,141.21 695.60,142.68              696.80,145.12 699.74,145.06 700.84,141.85              701.06,140.58 700.99,137.43 700.84,136.00              700.84,136.00 707.00,135.00 707.00,135.00              708.52,141.92 713.34,142.85 714.00,135.00              714.00,135.00 720.00,136.00 720.00,136.00              720.05,138.04 719.96,140.92 721.17,142.67              723.06,145.37 725.81,144.14 726.84,140.94              727.03,139.69 726.98,137.35 726.84,136.00              726.84,136.00 733.00,136.00 733.00,136.00              735.67,144.34 738.12,137.64 746.00,137.00              746.10,139.79 748.03,148.33 751.98,142.67              753.13,141.02 752.97,137.95 753.00,136.00              753.00,136.00 759.00,135.00 759.00,135.00              760.18,142.02 764.82,142.02 766.00,135.00              766.00,135.00 772.16,136.00 772.16,136.00              772.02,137.34 771.97,139.70 772.16,140.94              773.27,144.41 776.22,145.19 777.98,142.67              779.13,141.02 778.97,137.95 779.00,136.00              779.00,136.00 785.00,135.00 785.00,135.00              785.66,142.85 790.48,141.92 792.00,135.00              792.00,135.00 798.00,136.00 798.00,136.00              798.01,137.65 797.86,141.16 798.57,142.57              799.07,143.54 799.86,144.22 801.00,144.26              804.75,144.38 804.87,138.52 805.00,136.00              805.00,136.00 811.00,135.00 811.00,135.00              811.10,136.22 811.03,137.55 811.60,138.68              812.66,140.82 816.38,142.41 817.00,135.00              817.00,135.00 823.00,136.00 823.00,136.00              823.13,138.52 823.25,144.38 827.00,144.26              828.14,144.22 828.93,143.54 829.43,142.57              830.14,141.16 829.99,137.65 830.00,136.00              830.00,136.00 836.00,135.00 836.00,135.00              837.18,142.02 841.82,142.02 843.00,135.00              843.00,135.00 849.00,136.00 849.00,136.00              849.03,137.95 848.87,141.02 850.02,142.67              851.78,145.19 854.73,144.41 855.84,140.94              856.03,139.70 855.98,137.34 855.84,136.00              855.84,136.00 862.00,135.00 862.00,135.00              863.18,142.02 867.82,142.02 869.00,135.00              869.00,135.00 875.16,136.00 875.16,136.00              875.02,137.34 874.97,139.70 875.16,140.94              876.27,144.41 879.22,145.19 880.98,142.67              882.13,141.02 881.97,137.95 882.00,136.00              882.00,136.00 888.00,135.00 888.00,135.00              889.18,142.02 893.82,142.02 895.00,135.00              895.00,135.00 901.00,136.00 901.00,136.00              901.01,137.71 900.87,141.21 901.60,142.68              902.09,143.68 902.84,144.37 904.01,144.37              907.72,144.37 907.87,138.53 908.00,136.00              913.72,137.82 917.54,141.52 920.98,142.30              925.39,143.29 927.28,139.69 922.85,135.76              922.85,135.76 904.00,123.33 904.00,123.33              904.00,123.33 834.00,79.05 834.00,79.05              810.88,64.42 775.38,43.94 751.00,31.75              738.49,25.50 719.30,15.88 706.00,12.48              695.60,9.82 684.63,9.64 674.00,8.91              674.00,8.91 620.00,6.00 620.00,6.00              620.00,6.00 605.00,4.96 605.00,4.96              605.00,4.96 589.00,4.96 589.00,4.96              589.00,4.96 577.00,4.00 577.00,4.00              577.00,4.00 552.00,4.00 552.00,4.00              552.00,4.00 537.00,3.00 537.00,3.00              537.00,3.00 396.00,3.00 396.00,3.00              396.00,3.00 379.00,4.00 379.00,4.00              379.00,4.00 354.00,4.00 354.00,4.00              354.00,4.00 342.00,4.96 342.00,4.96              342.00,4.96 326.00,4.96 326.00,4.96              326.00,4.96 304.00,6.00 304.00,6.00              304.00,6.00 287.00,7.00 287.00,7.00              287.00,7.00 258.00,8.83 258.00,8.83              246.99,9.88 235.78,9.88 225.00,12.73              200.86,19.12 159.51,42.67 137.00,55.58              137.00,55.58 38.00,116.69 38.00,116.69              38.00,116.69 10.06,135.04 10.06,135.04              4.26,139.58 6.60,143.29 11.02,142.30              16.14,141.15 23.44,132.48 24.93,141.02              24.93,141.02 24.93,144.00 24.93,144.00 Z            M 182.00,221.00            C 182.00,221.00 162.00,221.00 162.00,221.00              162.07,228.26 163.10,235.14 168.47,240.53              179.67,251.78 211.02,250.36 221.79,238.90              227.72,232.58 228.10,225.11 228.00,217.00              227.78,200.25 214.76,196.33 201.00,192.87              195.39,191.46 185.50,189.42 183.66,183.00              183.14,181.21 183.55,179.62 184.60,178.13              189.05,171.82 199.59,174.48 206.00,175.00              206.00,175.00 206.00,181.00 206.00,181.00              206.00,181.00 226.00,181.00 226.00,181.00              226.00,181.00 226.00,171.00 226.00,171.00              225.96,169.12 226.02,167.04 224.98,165.38              222.46,161.37 213.48,159.15 209.00,158.44              194.63,156.17 170.20,156.70 164.13,173.00              160.26,183.40 162.75,194.65 172.00,201.20              176.01,204.04 183.18,206.17 188.00,207.58              193.86,209.29 205.05,211.30 206.94,218.02              208.73,224.40 202.74,230.05 197.00,231.30              189.28,232.99 182.92,228.93 182.00,221.00 Z            M 848.00,221.00            C 848.07,228.22 848.94,235.29 854.33,240.67              859.83,246.18 868.49,247.91 876.00,248.00              894.91,248.22 913.73,244.13 914.00,221.00              914.04,217.24 914.15,213.61 912.89,210.00              908.77,198.15 896.74,195.35 886.00,192.63              881.21,191.41 874.00,189.84 870.87,185.80              864.28,177.34 876.40,173.78 883.00,174.04              883.00,174.04 892.00,175.00 892.00,175.00              892.00,175.00 892.00,181.00 892.00,181.00              892.00,181.00 911.00,181.00 911.00,181.00              911.00,181.00 911.00,171.00 911.00,171.00              910.99,169.41 911.08,166.81 910.43,165.38              908.45,161.06 898.38,158.86 894.00,158.29              880.01,156.46 858.47,156.77 850.92,171.00              849.37,173.92 848.62,177.72 848.30,181.00              848.00,184.03 848.36,186.08 849.16,189.00              852.85,202.40 865.36,205.02 877.00,208.42              881.30,209.68 888.62,211.67 891.43,215.20              898.14,223.62 884.72,236.61 873.04,229.86              868.56,227.27 868.52,223.62 866.31,221.99              864.11,220.38 851.39,221.00 848.00,221.00 Z            M 107.00,158.44            C 103.00,159.19 99.35,159.74 96.09,162.42              87.57,169.41 88.58,181.26 87.91,191.00              87.91,191.00 87.00,202.00 87.00,202.00              87.00,202.00 87.91,215.00 87.91,215.00              88.56,224.48 87.51,236.80 96.09,243.35              100.86,246.99 111.04,247.93 117.00,248.00              124.67,248.09 138.91,248.05 144.67,242.61              150.36,237.24 151.96,224.54 152.00,217.00              152.05,206.64 152.68,188.50 151.08,179.00              150.13,173.38 148.90,167.49 144.67,163.34              137.81,156.59 116.26,157.25 107.00,158.44 Z            M 788.00,158.44            C 784.97,159.00 781.71,159.51 779.01,161.09              771.18,165.67 769.10,177.61 769.00,186.00              769.00,186.00 768.01,203.00 768.01,203.00              768.01,203.00 769.00,217.00 769.00,217.00              769.02,221.83 768.87,223.11 769.80,228.00              770.87,233.56 772.39,239.71 777.10,243.35              781.80,246.99 792.10,247.93 798.00,248.00              805.67,248.09 819.91,248.05 825.67,242.61              829.90,238.62 831.15,232.49 832.16,227.00              833.50,218.59 833.62,188.38 832.16,180.00              831.32,174.31 830.13,167.49 825.79,163.34              818.76,156.62 797.36,157.24 788.00,158.44 Z            M 15.00,159.00            C 15.00,159.00 15.00,247.00 15.00,247.00              15.00,247.00 76.00,247.00 76.00,247.00              76.00,247.00 76.00,230.00 76.00,230.00              76.00,230.00 36.00,230.00 36.00,230.00              36.00,230.00 36.00,159.00 36.00,159.00              36.00,159.00 15.00,159.00 15.00,159.00 Z            M 309.00,159.00            C 309.00,159.00 298.42,197.00 298.42,197.00              298.42,197.00 284.00,247.00 284.00,247.00              287.41,247.00 300.07,247.69 302.30,246.01              304.68,244.21 305.60,237.86 306.00,235.00              306.00,235.00 331.00,235.00 331.00,235.00              331.00,235.00 333.00,247.00 333.00,247.00              333.00,247.00 354.00,247.00 354.00,247.00              354.00,247.00 335.63,180.00 335.63,180.00              335.63,180.00 331.87,166.00 331.87,166.00              331.87,166.00 329.28,159.99 329.28,159.99              329.28,159.99 322.00,159.00 322.00,159.00              322.00,159.00 309.00,159.00 309.00,159.00 Z            M 369.00,159.00            C 369.00,159.00 369.00,247.00 369.00,247.00              369.00,247.00 390.00,247.00 390.00,247.00              390.00,247.00 390.00,212.00 390.00,212.00              397.06,212.58 397.31,216.13 400.25,222.00              400.25,222.00 411.96,244.69 411.96,244.69              415.18,248.38 429.87,247.00 435.00,247.00              435.00,247.00 417.00,210.00 417.00,210.00              421.91,208.85 426.26,207.29 429.30,202.96              433.87,196.45 433.84,178.12 430.43,171.00              429.05,168.11 426.65,165.48 424.00,163.70              419.75,160.85 413.95,160.29 409.00,159.58              409.00,159.58 369.00,159.00 369.00,159.00 Z            M 449.00,159.00            C 449.00,159.00 449.00,247.00 449.00,247.00              449.00,247.00 470.00,247.00 470.00,247.00              470.00,247.00 470.00,212.00 470.00,212.00              476.54,212.54 477.31,215.48 480.22,221.00              480.22,221.00 492.96,245.43 492.96,245.43              495.69,248.08 510.65,247.00 515.00,247.00              515.00,247.00 497.00,210.00 497.00,210.00              509.58,207.71 512.94,199.77 513.00,188.00              513.04,179.95 513.09,170.03 505.95,164.65              501.32,161.16 495.53,160.44 490.00,159.72              490.00,159.72 449.00,159.00 449.00,159.00 Z            M 532.00,159.00            C 532.00,159.00 532.00,173.00 532.00,173.00              532.00,173.00 549.00,173.00 549.00,173.00              549.00,173.00 549.00,233.00 549.00,233.00              549.00,233.00 532.00,233.00 532.00,233.00              532.00,233.00 532.00,247.00 532.00,247.00              532.00,247.00 588.00,247.00 588.00,247.00              588.00,247.00 588.00,233.00 588.00,233.00              588.00,233.00 579.00,233.00 579.00,233.00              572.04,232.95 570.14,232.43 570.00,225.00              570.00,225.00 570.00,181.00 570.00,181.00              570.18,171.38 573.96,173.00 588.00,173.00              588.00,173.00 588.00,159.00 588.00,159.00              588.00,159.00 532.00,159.00 532.00,159.00 Z            M 610.00,159.00            C 610.00,159.00 610.00,247.00 610.00,247.00              610.00,247.00 673.00,247.00 673.00,247.00              673.00,247.00 673.00,230.00 673.00,230.00              673.00,230.00 631.00,230.00 631.00,230.00              631.00,230.00 631.00,209.00 631.00,209.00              631.00,209.00 671.00,209.00 671.00,209.00              671.00,209.00 671.00,193.00 671.00,193.00              671.00,193.00 631.00,193.00 631.00,193.00              631.00,193.00 631.00,175.00 631.00,175.00              631.00,175.00 673.00,175.00 673.00,175.00              673.00,175.00 673.00,159.00 673.00,159.00              673.00,159.00 610.00,159.00 610.00,159.00 Z            M 690.00,159.00            C 690.00,159.00 690.00,247.00 690.00,247.00              690.00,247.00 711.00,247.00 711.00,247.00              711.00,247.00 711.00,212.00 711.00,212.00              718.31,212.60 718.73,215.95 721.75,222.00              721.75,222.00 733.96,245.43 733.96,245.43              735.70,247.12 737.75,246.96 740.00,247.00              740.00,247.00 757.00,247.00 757.00,247.00              757.00,247.00 746.22,226.00 746.22,226.00              746.22,226.00 738.00,210.00 738.00,210.00              750.81,207.98 753.98,199.85 754.00,188.00              754.01,179.94 754.10,170.04 746.95,164.65              742.32,161.16 736.53,160.44 731.00,159.72              731.00,159.72 690.00,159.00 690.00,159.00 Z            M 115.02,174.43            C 118.65,173.87 124.66,173.35 127.72,175.74              130.52,177.91 131.28,182.66 131.86,186.00              131.86,186.00 131.86,214.00 131.86,214.00              131.98,217.90 131.56,225.58 129.15,228.70              126.80,231.73 121.55,232.17 118.00,231.90              109.00,231.23 108.09,224.56 108.00,217.00              108.00,217.00 108.00,190.00 108.00,190.00              108.03,183.32 108.06,177.32 115.02,174.43 Z            M 390.00,198.00            C 390.00,198.00 390.00,174.00 390.00,174.00              394.12,174.00 405.36,174.05 408.61,176.17              413.34,179.27 413.35,193.75 408.61,196.83              405.79,198.65 393.90,198.00 390.00,198.00 Z            M 470.00,198.00            C 470.00,198.00 470.00,174.00 470.00,174.00              474.25,174.00 485.36,174.07 488.77,176.17              493.82,179.29 493.85,193.73 488.77,196.83              485.77,198.66 474.04,198.00 470.00,198.00 Z            M 711.00,198.00            C 711.00,198.00 711.00,174.00 711.00,174.00              715.25,174.00 726.35,174.07 729.77,176.17              735.03,179.41 735.05,193.61 729.77,196.83              726.76,198.66 715.04,198.00 711.00,198.00 Z            M 796.02,174.43            C 799.65,173.87 805.66,173.35 808.72,175.74              812.61,178.76 812.98,186.46 813.00,191.00              813.00,191.00 813.00,216.00 813.00,216.00              812.93,221.65 812.40,229.52 805.98,231.43              801.93,232.64 794.57,232.30 791.73,228.72              789.46,225.85 789.05,219.59 789.00,216.00              789.00,216.00 789.00,192.00 789.00,192.00              789.01,185.03 788.64,177.50 796.02,174.43 Z            M 320.00,187.00            C 320.00,187.00 327.00,221.00 327.00,221.00              327.00,221.00 310.00,221.00 310.00,221.00              310.00,221.00 315.71,198.00 315.71,198.00              315.71,198.00 320.00,187.00 320.00,187.00 Z            M 14.00,260.92            C 14.00,260.92 14.00,294.00 14.00,294.00              14.01,300.26 14.19,305.27 20.04,309.11              23.29,311.24 26.32,310.99 30.00,311.06              30.00,311.06 59.00,311.06 59.00,311.06              59.00,311.06 205.00,311.06 205.00,311.06              205.00,311.06 404.00,311.06 404.00,311.06              404.00,311.06 413.00,311.06 413.00,311.06              413.00,311.06 423.00,311.06 423.00,311.06              423.00,311.06 458.00,311.06 458.00,311.06              458.00,311.06 564.00,311.06 564.00,311.06              564.00,311.06 588.00,312.00 588.00,312.00              588.00,312.00 609.00,311.11 609.00,311.11              609.00,311.11 792.00,311.11 792.00,311.11              792.00,311.11 802.00,311.11 802.00,311.11              802.00,311.11 822.00,311.11 822.00,311.11              822.00,311.11 836.00,312.00 836.00,312.00              836.00,312.00 854.00,310.90 854.00,310.90              854.00,310.90 879.00,310.90 879.00,310.90              879.00,310.90 906.00,310.90 906.00,310.90              914.14,308.24 914.99,302.31 915.00,295.00              915.00,295.00 915.00,260.91 915.00,260.91              915.00,260.91 854.00,260.91 854.00,260.91              854.00,260.91 844.00,260.91 844.00,260.91              844.00,260.91 834.00,260.91 834.00,260.91              834.00,260.91 702.00,260.91 702.00,260.91              702.00,260.91 687.00,260.00 687.00,260.00              687.00,260.00 670.00,260.00 670.00,260.00              670.00,260.00 655.00,260.92 655.00,260.92              655.00,260.92 508.00,260.92 508.00,260.92              508.00,260.92 86.00,260.92 86.00,260.92              86.00,260.92 77.00,260.92 77.00,260.92              77.00,260.92 65.00,260.92 65.00,260.92              65.00,260.92 14.00,260.92 14.00,260.92 Z"
     style="stroke:#ff0000;stroke-opacity:1;fill:#ff0000;fill-opacity:1" />
  <text
     xml:space="preserve"
     style="font-weight:bold;font-size:49.9999px;line-height:1.25;font-family:Consolas;-inkscape-font-specification:'Consolas Bold';letter-spacing:5.09374px;stroke-width:3.12499"
     x="44.174881"
     y="301.91211"
     id="text4884"><tspan
       sodipodi:role="line"
       id="tspan4882"
       style="font-size:49.9999px;fill:#ffffff;stroke-width:3.12499"
       x="44.174881"
       y="301.91211">FONDA PURA ANTIOQUEÑA 1965</tspan></text>
</svg>
