<?xml version="1.0" encoding="UTF-8" standalone="no"?>
<svg
   width="77.873886mm"
   height="32.08128mm"
   viewBox="0 0 919.76836 378.91228"
   version="1.1"
   id="svg3"
   sodipodi:docname="logo_losarrieros_Kanit_bold_20_1_80.svg"
   inkscape:version="1.1 (c68e22c387, 2021-05-23)"
   xmlns:inkscape="http://www.inkscape.org/namespaces/inkscape"
   xmlns:sodipodi="http://sodipodi.sourceforge.net/DTD/sodipodi-0.dtd"
   xmlns="http://www.w3.org/2000/svg"
   xmlns:svg="http://www.w3.org/2000/svg">
  <defs
     id="defs7" />
  <sodipodi:namedview
     id="namedview5"
     pagecolor="#ffffff"
     bordercolor="#666666"
     borderopacity="1.0"
     inkscape:pageshadow="2"
     inkscape:pageopacity="0.0"
     inkscape:pagecheckerboard="0"
     inkscape:document-units="mm"
     showgrid="false"
     inkscape:zoom="1.7737355"
     inkscape:cx="165.1881"
     inkscape:cy="92.178343"
     inkscape:window-width="1366"
     inkscape:window-height="705"
     inkscape:window-x="-8"
     inkscape:window-y="-8"
     inkscape:window-maximized="1"
     inkscape:current-layer="svg3" />
  <path
     id="Selection"
     fill="none"
     stroke="black"
     stroke-width="1"
     d="m 18.819211,141.5 c 6.14,-0.48 5.92,-2.38 6.07,-8 0,0 6,-1 6,-1 1.18,7.02 5.82,7.02 7,0 0,0 6.16,1 6.16,1 -0.14,1.34 -0.19,3.7 0,4.94 1.11,3.47 4.06,4.25 5.82,1.73 1.15,-1.65 0.99,-4.72 1.02,-6.67 0,0 6,-1 6,-1 1.18,7.02 5.82,7.02 7,0 0,0 6.16,1 6.16,1 -0.14,1.34 -0.19,3.7 0,4.94 1.11,3.47 4.06,4.25 5.82,1.73 1.15,-1.65 0.99,-4.72 1.02,-6.67 0,0 6,-1 6,-1 0.65,7.78 4.65,7 7,0 0,0 6,1 6,1 0.01,1.65 -0.14,5.16 0.57,6.57 0.5,0.97 1.29,1.65 2.43,1.69 3.749999,0.12 3.869999,-5.74 3.999999,-8.26 0,0 5,-1 5,-1 1.52,6.92 6.34,7.85 7,0 0,0 6,1 6,1 0.13,2.52 0.25,8.38 4,8.26 1.14,-0.04 1.93,-0.72 2.43,-1.69 0.71,-1.41 0.56,-4.92 0.57,-6.57 0,0 6,-1 6,-1 1.52,6.92 6.34,7.85 7,0 0,0 6.16,1 6.16,1 -0.14,1.34 -0.19,3.7 0,4.94 1.11,3.47 4.06,4.25 5.82,1.73 1.15,-1.65 0.99,-4.72 1.02,-6.67 0,0 6,-1 6,-1 1.18,7.02 5.82,7.02 7,0 0,0 6,1 6,1 0.03,1.95 -0.13,5.02 1.02,6.67 1.76,2.52 4.71,1.74 5.82,-1.73 0.19,-1.24 0.14,-3.6 0,-4.94 0,0 6.16,-1 6.16,-1 0.66,7.85 5.48,6.92 7,0 0,0 6.16,1 6.16,1 -0.14,1.35 -0.19,3.69 0,4.94 1.03,3.2 3.78,4.43 5.67,1.73 1.21,-1.75 1.12,-4.63 1.17,-6.67 0,0 6,-1 6,-1 0.1,1.22 0.03,2.55 0.6,3.68 1.06,2.14 4.78,3.73 5.4,-3.68 0,0 7,1 7,1 0.01,1.71 -0.13,5.21 0.6,6.68 1.2,2.44 4.14,2.38 5.24,-0.83 0.22,-1.27 0.15,-4.42 0,-5.85 0,0 6.16,-1 6.16,-1 1.52,6.92 6.34,7.85 7,0 0,0 6,1 6,1 0.05,2.04 -0.04,4.92 1.17,6.67 1.89,2.7 4.64,1.47 5.67,-1.73 0.19,-1.25 0.14,-3.59 0,-4.94 0,0 6.16,-1 6.16,-1 1.18,7.02 5.82,7.02 7,0 0,0 6.16,1 6.16,1 -0.14,1.34 -0.19,3.7 0,4.94 1.11,3.47 4.06,4.25 5.82,1.73 1.15,-1.65 0.99,-4.72 1.02,-6.67 0,0 6,-1 6,-1 1.18,7.02 5.82,7.02 7,0 0,0 6.16,1 6.16,1 -0.14,1.34 -0.19,3.7 0,4.94 1.11,3.47 4.06,4.25 5.82,1.73 1.15,-1.65 0.99,-4.72 1.02,-6.67 0,0 6,-1 6,-1 0.65,7.78 4.65,7 7,0 0,0 6,1 6,1 0.01,1.65 -0.14,5.16 0.57,6.57 0.5,0.97 1.29,1.65 2.43,1.69 3.75,0.12 3.87,-5.74 4,-8.26 0,0 5,-1 5,-1 1.52,6.92 6.34,7.85 7,0 0,0 6,1 6,1 0.13,2.52 0.25,8.38 4,8.26 1.14,-0.04 1.93,-0.72 2.43,-1.69 0.71,-1.41 0.56,-4.92 0.57,-6.42 1.55,-0.23 3.24,-0.52 4.7,0 1.43,0.8 6.06,8.11 8.14,1.7 0,0 0,-2.85 0,-2.85 0,0 6.16,1 6.16,1 0.03,1.95 -0.13,5.02 1.02,6.67 1.76,2.52 4.71,1.74 5.82,-1.73 0.19,-1.24 0.14,-3.6 0,-4.94 0,0 6.16,-1 6.16,-1 1.18,7.02 5.82,7.02 7,0 0,0 6.16,1 6.16,1 -0.14,1.34 -0.19,3.7 0,4.94 1.11,3.47 4.06,4.25 5.82,1.73 1.15,-1.65 0.99,-4.72 1.02,-6.67 0,0 6,-1 6,-1 0.66,7.85 5.48,6.92 7,0 0,0 6.16,1 6.16,1 -0.14,1.35 -0.19,3.69 0,4.94 1.03,3.2 3.78,4.43 5.67,1.73 1.21,-1.75 1.12,-4.63 1.17,-6.67 0,0 6,-1 6,-1 0.66,7.85 5.48,6.92 7,0 0,0 6,1 6,1 0.01,1.71 -0.13,5.21 0.6,6.68 1.2,2.44 4.14,2.38 5.24,-0.83 0.22,-1.27 0.15,-4.42 0,-5.85 0,0 6.16,-1 6.16,-1 1.52,6.92 6.34,7.85 7,0 0,0 6,1 6,1 0.05,2.04 -0.04,4.92 1.17,6.67 1.89,2.7 4.64,1.47 5.67,-1.73 0.19,-1.25 0.14,-3.59 0,-4.94 0,0 6.16,-1 6.16,-1 1.18,7.02 5.82,7.02 7,0 0,0 6.16,1 6.16,1 -0.14,1.34 -0.19,3.7 0,4.94 1.11,3.47 4.06,4.25 5.82,1.73 1.15,-1.65 0.99,-4.72 1.02,-6.67 0,0 6,-1 6,-1 1.18,7.02 5.82,7.02 7,0 0,0 6.16,1 6.16,1 -0.14,1.34 -0.19,3.7 0,4.94 1.11,3.47 4.06,4.25 5.82,1.73 1.15,-1.65 0.99,-4.72 1.02,-6.67 0,0 6,-1 6,-1 0.65,7.78 4.65,7 7,0 0,0 6,1 6,1 0.01,1.65 -0.14,5.16 0.57,6.57 0.5,0.97 1.29,1.65 2.43,1.69 3.75,0.12 3.87,-5.74 4,-8.26 0,0 6,-1 6,-1 0.1,1.22 0.03,2.55 0.6,3.68 1.06,2.14 4.78,3.73 5.4,-3.68 0,0 6,1 6,1 0.13,2.52 0.25,8.38 4,8.26 1.14,-0.04 1.93,-0.72 2.43,-1.69 0.71,-1.41 0.56,-4.92 0.57,-6.57 0,0 6,-1 6,-1 1.52,6.92 6.34,7.85 7,0 0,0 6.16,1 6.16,1 -0.14,1.34 -0.19,3.7 0,4.94 1.11,3.47 4.06,4.25 5.82,1.73 1.15,-1.65 0.99,-4.72 1.02,-6.67 0,0 6,-1 6,-1 1.18,7.02 5.82,7.02 7,0 0,0 6,1 6,1 0.03,1.95 -0.13,5.02 1.02,6.67 1.76,2.52 4.71,1.74 5.82,-1.73 0.19,-1.24 0.14,-3.6 0,-4.94 0,0 6.16,-1 6.16,-1 1.18,7.02 5.82,7.02 7,0 0,0 6.16,1 6.16,1 -0.14,1.35 -0.19,3.69 0,4.94 1.03,3.2 3.78,4.43 5.67,1.73 1.21,-1.75 1.12,-4.63 1.17,-6.67 0,0 6,-1 6,-1 0.66,7.85 5.48,6.92 7,0 0,0 6,1 6,1 0.01,1.71 -0.13,5.21 0.6,6.68 1.2,2.44 4.14,2.38 5.24,-0.83 0.22,-1.27 0.15,-4.42 0,-5.85 0,0 6.16,-1 6.16,-1 1.52,6.92 6.34,7.85 7,0 0,0 6,1 6,1 0.05,2.04 -0.04,4.92 1.17,6.67 1.89,2.7 4.64,1.47 5.67,-1.73 0.19,-1.25 0.14,-3.59 0,-4.94 0,0 6.16,0 6.16,0 2.67,8.34 5.12,1.64 13,1 0.1,2.79 2.03,11.33 5.98,5.67 1.15,-1.65 0.99,-4.72 1.02,-6.67 0,0 6,-1 6,-1 1.18,7.02 5.82,7.02 7,0 0,0 6.16,1 6.16,1 -0.14,1.34 -0.19,3.7 0,4.94 1.11,3.47 4.06,4.25 5.82,1.73 1.15,-1.65 0.99,-4.72 1.02,-6.67 0,0 6,-1 6,-1 0.66,7.85 5.48,6.92 7,0 0,0 6,1 6,1 0.01,1.65 -0.14,5.16 0.57,6.57 0.5,0.97 1.29,1.65 2.43,1.69 3.75,0.12 3.87,-5.74 4,-8.26 0,0 6,-1 6,-1 0.1,1.22 0.03,2.55 0.6,3.68 1.06,2.14 4.78,3.73 5.4,-3.68 0,0 6,1 6,1 0.13,2.52 0.25,8.38 4,8.26 1.14,-0.04 1.93,-0.72 2.43,-1.69 0.71,-1.41 0.56,-4.92 0.57,-6.57 0,0 6,-1 6,-1 1.18,7.02 5.82,7.02 7,0 0,0 6,1 6,1 0.03,1.95 -0.13,5.02 1.02,6.67 1.76,2.52 4.71,1.74 5.82,-1.73 0.19,-1.24 0.14,-3.6 0,-4.94 0,0 6.16,-1 6.16,-1 1.18,7.02 5.82,7.02 7,0 0,0 6.16,1 6.16,1 -0.14,1.34 -0.19,3.7 0,4.94 1.11,3.47 4.06,4.25 5.82,1.73 1.15,-1.65 0.99,-4.72 1.02,-6.67 0,0 6,-1 6,-1 1.18,7.02 5.82,7.02 7,0 0,0 6,1 6,1 0.01,1.71 -0.13,5.21 0.6,6.68 0.49,1 1.24,1.69 2.41,1.69 3.71,0 3.86,-5.84 3.99,-8.37 5.72,1.82 9.54,5.52 12.98,6.3 4.41,0.99 6.3,-2.61 1.87,-6.54 0,0 -18.85,-12.43 -18.85,-12.43 0,0 -70,-44.28 -70,-44.28 -23.12,-14.63 -58.62,-35.11 -83,-47.3 -12.51,-6.25 -31.7,-15.87 -45,-19.27 -10.4,-2.66 -21.37,-2.84 -32,-3.57 0,0 -54,-2.91 -54,-2.91 0,0 -15,-1.04 -15,-1.04 0,0 -16,0 -16,0 0,0 -12,-0.96 -12,-0.96 0,0 -25,0 -25,0 0,0 -15,-1 -15,-1 0,0 -141,0 -141,0 0,0 -17,1 -17,1 0,0 -25,0 -25,0 0,0 -12,0.96 -12,0.96 0,0 -16,0 -16,0 0,0 -22,1.04 -22,1.04 0,0 -17,1 -17,1 0,0 -29,1.83 -29,1.83 -11.01,1.05 -22.22,1.05 -33,3.9 -24.14,6.39 -65.49,29.94 -88,42.85 0,0 -98.999999,61.11 -98.999999,61.11 0,0 -27.9399997,18.35 -27.9399997,18.35 -5.8,4.54 -3.46000004,8.25 0.96,7.26 5.1199997,-1.15 12.4199997,-9.82 13.9099997,-1.28 0,0 0,2.98 0,2.98 z m 157.069999,77 c 0,0 -20,0 -20,0 0.07,7.26 1.1,14.14 6.47,19.53 11.2,11.25 42.55,9.83 53.32,-1.63 5.93,-6.32 6.31,-13.79 6.21,-21.9 -0.22,-16.75 -13.24,-20.67 -27,-24.13 -5.61,-1.41 -15.5,-3.45 -17.34,-9.87 -0.52,-1.79 -0.11,-3.38 0.94,-4.87 4.45,-6.31 14.99,-3.65 21.4,-3.13 0,0 0,6 0,6 0,0 20,0 20,0 0,0 0,-10 0,-10 -0.04,-1.88 0.02,-3.96 -1.02,-5.62 -2.52,-4.01 -11.5,-6.23 -15.98,-6.94 -14.37,-2.27 -38.8,-1.74 -44.87,14.56 -3.87,10.4 -1.38,21.65 7.87,28.2 4.01,2.84 11.18,4.97 16,6.38 5.86,1.71 17.05,3.72 18.94,10.44 1.79,6.38 -4.2,12.03 -9.94,13.28 -7.72,1.69 -14.08,-2.37 -15,-10.3 z m 666,0 c 0.07,7.22 0.94,14.29 6.33,19.67 5.5,5.51 14.16,7.24 21.67,7.33 18.91,0.22 37.73,-3.87 38,-27 0.04,-3.76 0.15,-7.39 -1.11,-11 -4.12,-11.85 -16.15,-14.65 -26.89,-17.37 -4.79,-1.22 -12,-2.79 -15.13,-6.83 -6.59,-8.46 5.53,-12.02 12.13,-11.76 0,0 9,0.96 9,0.96 0,0 0,6 0,6 0,0 19,0 19,0 0,0 0,-10 0,-10 -0.01,-1.59 0.08,-4.19 -0.57,-5.62 -1.98,-4.32 -12.05,-6.52 -16.43,-7.09 -13.99,-1.83 -35.53,-1.52 -43.08,12.71 -1.55,2.92 -2.3,6.72 -2.62,10 -0.3,3.03 0.06,5.08 0.86,8 3.69,13.4 16.2,16.02 27.84,19.42 4.3,1.26 11.62,3.25 14.43,6.78 6.71,8.42 -6.71,21.41 -18.39,14.66 -4.48,-2.59 -4.52,-6.24 -6.73,-7.87 -2.2,-1.61 -14.92,-0.99 -18.31,-0.99 z m -741,-62.56 c -3.999999,0.75 -7.649999,1.3 -10.909999,3.98 -8.52,6.99 -7.51,18.84 -8.18,28.58 0,0 -0.91,11 -0.91,11 0,0 0.91,13 0.91,13 0.65,9.48 -0.4,21.8 8.18,28.35 4.77,3.64 14.949999,4.58 20.909999,4.65 7.67,0.09 21.91,0.05 27.67,-5.39 5.69,-5.37 7.29,-18.07 7.33,-25.61 0.05,-10.36 0.68,-28.5 -0.92,-38 -0.95,-5.62 -2.18,-11.51 -6.41,-15.66 -6.86,-6.75 -28.41,-6.09 -37.67,-4.9 z m 681,0 c -3.03,0.56 -6.29,1.07 -8.99,2.65 -7.83,4.58 -9.91,16.52 -10.01,24.91 0,0 -0.99,17 -0.99,17 0,0 0.99,14 0.99,14 0.02,4.83 -0.13,6.11 0.8,11 1.07,5.56 2.59,11.71 7.3,15.35 4.7,3.64 15,4.58 20.9,4.65 7.67,0.09 21.91,0.05 27.67,-5.39 4.23,-3.99 5.48,-10.12 6.49,-15.61 1.34,-8.41 1.46,-38.62 0,-47 -0.84,-5.69 -2.03,-12.51 -6.37,-16.66 -7.03,-6.72 -28.43,-6.1 -37.79,-4.9 z M 8.8892113,156.5 c 0,0 0,88 0,88 0,0 60.9999997,0 60.9999997,0 0,0 0,-17 0,-17 0,0 -40,0 -40,0 0,0 0,-71 0,-71 0,0 -20.9999997,0 -20.9999997,0 z m 293.9999987,0 c 0,0 -10.58,38 -10.58,38 0,0 -14.42,50 -14.42,50 3.41,0 16.07,0.69 18.3,-0.99 2.38,-1.8 3.3,-8.15 3.7,-11.01 0,0 25,0 25,0 0,0 2,12 2,12 0,0 21,0 21,0 0,0 -18.37,-67 -18.37,-67 0,0 -3.76,-14 -3.76,-14 0,0 -2.59,-6.01 -2.59,-6.01 0,0 -7.28,-0.99 -7.28,-0.99 0,0 -13,0 -13,0 z m 60,0 c 0,0 0,88 0,88 0,0 21,0 21,0 0,0 0,-35 0,-35 7.06,0.58 7.31,4.13 10.25,10 0,0 11.71,22.69 11.71,22.69 3.22,3.69 17.91,2.31 23.04,2.31 0,0 -18,-37 -18,-37 4.91,-1.15 9.26,-2.71 12.3,-7.04 4.57,-6.51 4.54,-24.84 1.13,-31.96 -1.38,-2.89 -3.78,-5.52 -6.43,-7.3 -4.25,-2.85 -10.05,-3.41 -15,-4.12 0,0 -40,-0.58 -40,-0.58 z m 80,0 c 0,0 0,88 0,88 0,0 21,0 21,0 0,0 0,-35 0,-35 6.54,0.54 7.31,3.48 10.22,9 0,0 12.74,24.43 12.74,24.43 2.73,2.65 17.69,1.57 22.04,1.57 0,0 -18,-37 -18,-37 12.58,-2.29 15.94,-10.23 16,-22 0.04,-8.05 0.09,-17.97 -7.05,-23.35 -4.63,-3.49 -10.42,-4.21 -15.95,-4.93 0,0 -41,-0.72 -41,-0.72 z m 83,0 c 0,0 0,14 0,14 0,0 17,0 17,0 0,0 0,60 0,60 0,0 -17,0 -17,0 0,0 0,14 0,14 0,0 56,0 56,0 0,0 0,-14 0,-14 0,0 -9,0 -9,0 -6.96,-0.05 -8.86,-0.57 -9,-8 0,0 0,-44 0,-44 0.18,-9.62 3.96,-8 18,-8 0,0 0,-14 0,-14 0,0 -56,0 -56,0 z m 78,0 c 0,0 0,88 0,88 0,0 63,0 63,0 0,0 0,-17 0,-17 0,0 -42,0 -42,0 0,0 0,-21 0,-21 0,0 40,0 40,0 0,0 0,-16 0,-16 0,0 -40,0 -40,0 0,0 0,-18 0,-18 0,0 42,0 42,0 0,0 0,-16 0,-16 0,0 -63,0 -63,0 z m 80,0 c 0,0 0,88 0,88 0,0 21,0 21,0 0,0 0,-35 0,-35 7.31,0.6 7.73,3.95 10.75,10 0,0 12.21,23.43 12.21,23.43 1.74,1.69 3.79,1.53 6.04,1.57 0,0 17,0 17,0 0,0 -10.78,-21 -10.78,-21 0,0 -8.22,-16 -8.22,-16 12.81,-2.02 15.98,-10.15 16,-22 0.01,-8.06 0.1,-17.96 -7.05,-23.35 -4.63,-3.49 -10.42,-4.21 -15.95,-4.93 0,0 -41,-0.72 -41,-0.72 z m -574.98,15.43 c 3.63,-0.56 9.64,-1.08 12.7,1.31 2.8,2.17 3.56,6.92 4.14,10.26 0,0 0,28 0,28 0.12,3.9 -0.3,11.58 -2.71,14.7 -2.35,3.03 -7.6,3.47 -11.15,3.2 -9,-0.67 -9.91,-7.34 -10,-14.9 0,0 0,-27 0,-27 0.03,-6.68 0.06,-12.68 7.02,-15.57 z m 274.98,23.57 c 0,0 0,-24 0,-24 4.12,0 15.36,0.05 18.61,2.17 4.73,3.1 4.74,17.58 0,20.66 -2.82,1.82 -14.71,1.17 -18.61,1.17 z m 80,0 c 0,0 0,-24 0,-24 4.25,0 15.36,0.07 18.77,2.17 5.05,3.12 5.08,17.56 0,20.66 -3,1.83 -14.73,1.17 -18.77,1.17 z m 241,0 c 0,0 0,-24 0,-24 4.25,0 15.35,0.07 18.77,2.17 5.26,3.24 5.28,17.44 0,20.66 -3.01,1.83 -14.73,1.17 -18.77,1.17 z m 85.02,-23.57 c 3.63,-0.56 9.64,-1.08 12.7,1.31 3.89,3.02 4.26,10.72 4.28,15.26 0,0 0,25 0,25 -0.07,5.65 -0.6,13.52 -7.02,15.43 -4.05,1.21 -11.41,0.87 -14.25,-2.71 -2.27,-2.87 -2.68,-9.13 -2.73,-12.72 0,0 0,-24 0,-24 0.01,-6.97 -0.36,-14.5 7.02,-17.57 z m -476.02,12.57 c 0,0 7,34 7,34 0,0 -17,0 -17,0 0,0 5.71,-23 5.71,-23 0,0 4.29,-11 4.29,-11 z M 7.8892113,258.42 c 0,0 0,33.08 0,33.08 0.01,6.26 0.19,11.27 6.0399997,15.11 3.25,2.13 6.28,1.88 9.96,1.95 0,0 29,0 29,0 0,0 145.999999,0 145.999999,0 0,0 199,0 199,0 0,0 9,0 9,0 0,0 10,0 10,0 0,0 35,0 35,0 0,0 106,0 106,0 0,0 24,0.94 24,0.94 0,0 21,-0.89 21,-0.89 0,0 183,0 183,0 0,0 10,0 10,0 0,0 20,0 20,0 0,0 14,0.89 14,0.89 0,0 18,-1.1 18,-1.1 0,0 25,0 25,0 0,0 27,0 27,0 8.14,-2.66 8.99,-8.59 9,-15.9 0,0 0,-34.09 0,-34.09 0,0 -61,0 -61,0 0,0 -10,0 -10,0 0,0 -10,0 -10,0 0,0 -132,0 -132,0 0,0 -15,-0.91 -15,-0.91 0,0 -17,0 -17,0 0,0 -15,0.92 -15,0.92 0,0 -147,0 -147,0 0,0 -421.999999,0 -421.999999,0 0,0 -9,0 -9,0 0,0 -12,0 -12,0 0,0 -50.9999997,0 -50.9999997,0 z"
     style="fill:#ff0000;fill-opacity:1;stroke:#ff0000;stroke-opacity:1" />
  <text
     xml:space="preserve"
     style="font-weight:bold;font-size:62.4999px;line-height:1.25;font-family:Consolas;-inkscape-font-specification:'Consolas Bold';letter-spacing:5.62499px;fill:#ff0000;stroke-width:3.12499"
     x="7.1670003"
     y="368.16211"
     id="text4884"><tspan
       sodipodi:role="line"
       id="tspan4882"
       style="font-style:normal;font-variant:normal;font-weight:bold;font-stretch:normal;font-size:62.4999px;font-family:Kanit;-inkscape-font-specification:'Kanit Bold';fill:#ff0000;stroke-width:3.12499"
       x="7.1670003"
       y="368.16211">FONDA PURA ANTIOQUEÑA</tspan></text>
  <text
     xml:space="preserve"
     style="font-weight:bold;font-size:62.4999px;line-height:1.25;font-family:Consolas;-inkscape-font-specification:'Consolas Bold';letter-spacing:5.62499px;fill:#ffffff;stroke-width:3.12499"
     x="386.8533"
     y="303.01938"
     id="text15929"
     inkscape:export-filename="C:\Users\kgong\OneDrive\Documentos\GIMP_works\los_arrieros\logo_losarrieros_Kani_bold_20_1_80.png"
     inkscape:export-xdpi="81.540001"
     inkscape:export-ydpi="81.540001"><tspan
       sodipodi:role="line"
       id="tspan15927"
       style="font-style:normal;font-variant:normal;font-weight:bold;font-stretch:normal;font-size:62.4999px;font-family:Kanit;-inkscape-font-specification:'Kanit Bold';fill:#ffffff;stroke-width:3.12499"
       x="386.8533"
       y="303.01938">1965</tspan></text>
</svg>
