<?xml version="1.0" encoding="UTF-8" standalone="no"?>
<svg
   width="5.2083335in"
   height="4.3843479in"
   viewBox="0 0 1562.5006 1315.3051"
   version="1.1"
   id="svg3"
   sodipodi:docname="mula.svg"
   inkscape:version="1.1 (c68e22c387, 2021-05-23)"
   xmlns:inkscape="http://www.inkscape.org/namespaces/inkscape"
   xmlns:sodipodi="http://sodipodi.sourceforge.net/DTD/sodipodi-0.dtd"
   xmlns="http://www.w3.org/2000/svg"
   xmlns:svg="http://www.w3.org/2000/svg">
  <defs
     id="defs7" />
  <sodipodi:namedview
     id="namedview5"
     pagecolor="#ffffff"
     bordercolor="#666666"
     borderopacity="1.0"
     inkscape:pageshadow="2"
     inkscape:pageopacity="0.0"
     inkscape:pagecheckerboard="0"
     inkscape:document-units="in"
     showgrid="false"
     inkscape:zoom="0.78060406"
     inkscape:cx="240.1986"
     inkscape:cy="118.49798"
     inkscape:window-width="1366"
     inkscape:window-height="705"
     inkscape:window-x="-8"
     inkscape:window-y="-8"
     inkscape:window-maximized="1"
     inkscape:current-layer="svg3" />
  <path
     id="Selection"
     fill="none"
     stroke="#000000"
     stroke-width="1"
     d="m 407.62458,347.45312 c -54.38278,-13.3728 -82.99248,-15.72318 -137.78048,0 -33.87779,9.2394 -73.59098,30.6359 -105.36154,47.00745 -26.17829,13.45385 -41.65833,21.39652 -62.40645,43.27927 C -24.600865,571.38692 67.95519,798.15739 46.072408,923.21342 L 12.194625,1206.8792 c 1.377805,26.5835 5.349124,80.561 32.581028,92.3939 17.182035,7.4564 49.51992,4.6197 58.029887,-14.8316 7.13217,-16.3716 -3.89027,-43.7656 -4.4576,-61.3529 v -89.152 c 49.76306,55.0311 42.06356,191.0285 147.18196,162.0946 -27.47505,-96.4463 -70.10595,-132.1882 -55.27428,-251.2467 4.2955,-34.5262 68.16081,-168.17328 87.93636,-201.24061 24.3142,-40.76682 23.50375,-25.28677 48.38525,-82.42517 l 81.04735,28.12345 c 91.09717,34.85037 89.88147,45.30547 194.5136,44.81917 50.57355,-0.243 80.56105,-10.53615 129.5947,-18.64087 24.71942,-4.05235 43.19822,-11.91398 60.78547,12.4813 17.50623,24.31417 9.72568,52.11342 6.40275,79.10217 L 788.54705,1060.994 c -0.97257,68.8902 -27.0698,91.5834 -25.52992,129.6757 0.72942,16.1284 5.67332,26.1783 12.3192,40.5237 21.5586,46.4401 50.08725,60.7044 101.8765,45.1433 62.56852,-18.803 -5.2681,-67.6745 -6.88905,-126.1907 -1.2157,-45.3865 21.07232,-86.5585 31.36532,-129.6757 14.18328,-59.16463 14.83165,-143.61596 54.22068,-193.62216 32.58102,-41.49627 61.67702,-23.99 84.77552,-52.03242 18.884,-22.93638 12.3192,-51.38403 33.3915,-86.55855 19.2893,-32.3379 101.9575,-92.31293 135.9164,-123.02988 16.2905,-14.7506 45.3054,-46.52115 64.8378,-53.08597 45.7107,-15.31795 117.3566,44.57602 141.3466,78.77797 15.9663,22.69328 19.4514,53.73443 53.4912,53.81545 62.9738,0.162 90.692,-55.43637 77.4002,-110.54857 l -38.0112,-89.15205 -18.965,-105.36155 c -16.2906,-52.5997 -39.6322,-64.67578 -53.7344,-97.2568 -11.0225,-25.69199 -3.4851,-40.52365 -23.7469,-89.15205 -54.3017,26.25933 -49.682,52.35657 -97.2568,76.50868 l -218.8278,75.94134 c -27.5561,10.4551 -110.62962,43.60348 -136.72687,35.82293 -26.50248,-7.94263 -32.82415,-43.36033 -38.49748,-66.70195 C 901.04073,192.40958 956.15293,156.10037 896.82625,81.698922 755.83467,0.06798958 683.59265,-4.9950504 585.92873,41.985722 526.19683,69.541815 483.07751,76.001076 466.62703,153.26372 c 2.83667,62.81168 -15.399,48.4663 -35.985,97.2568 z M 115.85416,607.12879 c 20.34288,43.8466 11.67082,41.8204 22.53116,81.04733 14.50747,52.11342 48.46631,96.04107 -14.42643,129.67577 L 101.99507,632.33452 Z"
     sodipodi:nodetypes="ccccccccccccccccccccccccccccccccccccccccccccccccccc"
     style="fill:#ff0000;fill-opacity:1;stroke:#ffffff;stroke-width:24.3142;stroke-miterlimit:4;stroke-dasharray:none;stroke-opacity:1"
     inkscape:export-filename="C:\Users\kgong\OneDrive\Documentos\GIMP_works\los_arrieros\mula.png"
     inkscape:export-xdpi="81.540001"
     inkscape:export-ydpi="81.540001" />
</svg>
